<svg width="2000" height="1400" xmlns="http://www.w3.org/2000/svg"><defs><linearGradient id="a" gradientTransform="rotate(90)"><stop offset="5%" stop-color="#3c0bdd"/><stop offset="95%" stop-color="#6c48e5"/></linearGradient><linearGradient id="b" gradientTransform="rotate(90)"><stop offset="5%" stop-color="#5b13bb"/><stop offset="95%" stop-color="#844ecc"/></linearGradient><linearGradient id="c" gradientTransform="rotate(90)"><stop offset="5%" stop-color="#7b1b99"/><stop offset="95%" stop-color="#9c54b2"/></linearGradient><linearGradient id="d" gradientTransform="rotate(90)"><stop offset="5%" stop-color="#9a2276"/><stop offset="95%" stop-color="#b35998"/></linearGradient><linearGradient id="e" gradientTransform="rotate(90)"><stop offset="5%" stop-color="#b92a54"/><stop offset="95%" stop-color="#ca5f7e"/></linearGradient><linearGradient id="f" gradientTransform="rotate(90)"><stop offset="5%" stop-color="#d83232"/><stop offset="95%" stop-color="#e16565"/></linearGradient><linearGradient id="g" gradientTransform="rotate(90)"><stop offset="5%" stop-color="#dc5154"/><stop offset="95%" stop-color="#e47c7e"/></linearGradient><linearGradient id="h" gradientTransform="rotate(90)"><stop offset="5%" stop-color="#e07076"/><stop offset="95%" stop-color="#e79398"/></linearGradient><linearGradient id="i" gradientTransform="rotate(90)"><stop offset="5%" stop-color="#e49099"/><stop offset="95%" stop-color="#eaabb2"/></linearGradient><linearGradient id="j" gradientTransform="rotate(90)"><stop offset="5%" stop-color="#e7afbb"/><stop offset="95%" stop-color="#edc3cc"/></linearGradient><linearGradient id="k" gradientTransform="rotate(90)"><stop offset="5%" stop-color="#ebcedd"/><stop offset="95%" stop-color="#f0dae5"/></linearGradient><linearGradient id="l" gradientTransform="rotate(90)"><stop offset="5%" stop-color="#efedff"/><stop offset="95%" stop-color="#f3f1ff"/></linearGradient></defs><path fill="#1d03ff" d="M0 0h2000v1400H0z"/><path d="M0 107c20.44-.357 40.88-.713 66-4 25.12-3.287 54.923-9.504 76-16 21.077-6.496 33.43-13.27 55-6s52.358 28.587 76 24c23.642-4.587 40.138-35.077 60-28 19.862 7.077 43.089 51.723 63 58 19.911 6.277 36.506-25.813 61-36 24.494-10.187 56.885 1.53 81 10 24.115 8.47 39.952 13.696 60 8 20.048-5.696 44.308-22.313 70-31 25.692-8.687 52.816-9.443 74-11 21.184-1.557 36.427-3.915 55 6s40.476 32.101 64 44c23.524 11.899 48.67 13.51 72 11s44.846-9.139 68-15c23.154-5.861 47.945-10.955 71-15s44.373-7.042 65-4c20.627 3.042 40.564 12.124 62 17 21.436 4.876 44.372 5.546 67 5 22.628-.546 44.95-2.307 68-15 23.05-12.693 46.83-36.319 72-32 25.17 4.319 51.734 36.582 70 51s28.236 10.992 51 7c22.764-3.992 58.321-8.55 82-18 23.679-9.45 35.478-23.794 55-18 19.522 5.794 46.767 31.724 72 35 25.233 3.276 48.454-16.101 68-25 19.546-8.899 35.416-7.319 55-3 19.584 4.319 42.881 11.377 67 12 24.119.623 49.06-5.188 114-11l-40 1293H0Z" fill="url(#a)"/><path d="M0 215c19.163 5.908 38.326 11.815 60 1s45.859-38.353 68-32c22.141 6.353 42.239 46.596 66 55 23.761 8.404 51.185-15.033 75-22 23.815-6.967 44.02 2.536 62 2 17.98-.536 33.737-11.11 59-18 25.263-6.89 60.031-10.095 83-2s34.139 27.489 54 23c19.861-4.489 48.414-32.86 76-32 27.586.86 54.205 30.952 72 40 17.795 9.048 26.768-2.947 49-14s57.725-21.165 82-26c24.275-4.835 37.334-4.394 58 7 20.666 11.394 48.94 33.742 74 41 25.06 7.258 46.904-.575 69-15 22.096-14.425 44.445-35.444 64-35 19.555.444 36.317 22.349 58 24 21.683 1.651 48.289-16.952 70-20 21.711-3.048 38.528 9.458 61 17s50.598 10.12 76 6c25.402-4.12 48.078-14.936 71-16 22.922-1.064 46.09 7.626 66 12 19.91 4.374 36.565 4.433 56 12 19.435 7.567 41.65 22.643 67 18 25.35-4.643 53.836-29.004 75-28 21.164 1.004 35.005 27.374 58 22 22.995-5.374 55.143-42.492 77-48 21.857-5.508 33.423 20.594 52 27 18.577 6.406 44.165-6.884 69-10 24.835-3.116 48.918 3.942 113 11l-40 1185H0Z" fill="url(#b)"/><path d="M0 323c17.188-12.547 34.377-25.095 57-29 22.623-3.905 50.681.832 77 17 26.319 16.168 50.899 43.766 72 44 21.101.234 38.724-26.897 61-28 22.276-1.103 49.204 23.82 73 24 23.796.18 44.46-24.384 63-23 18.54 1.384 34.955 28.718 55 23s43.72-44.486 66-55c22.28-10.514 43.167 7.226 69 13s56.614-.42 79-4c22.386-3.58 36.379-4.547 57-2 20.621 2.547 47.87 8.608 69 3 21.13-5.608 36.139-22.883 60-14 23.861 8.883 56.574 43.926 79 46 22.426 2.074 34.564-28.822 57-27 22.436 1.822 55.17 36.36 82 37 26.83.64 47.756-32.62 65-48 17.244-15.38 30.805-12.878 50-2s44.023 30.13 71 39c26.977 8.87 56.103 7.354 78 9s36.563 6.454 59-7c22.437-13.454 52.643-45.169 73-45 20.357.169 30.866 32.22 52 40 21.134 7.78 52.893-8.713 79-16 26.107-7.287 46.56-5.367 70-10 23.44-4.633 49.864-15.819 69-14 19.136 1.819 30.985 16.642 51 18 20.015 1.358 48.196-10.75 71-9 22.804 1.75 40.23 17.357 62 23 21.77 5.643 47.885 1.321 114-3l-40 1077H0Z" fill="url(#c)"/><path d="M0 430c21.502 8.131 43.004 16.263 67 22 23.996 5.737 50.488 9.081 70-2s32.046-36.587 54-38c21.954-1.413 53.33 21.268 78 27 24.67 5.732 42.637-5.484 64-12s46.122-8.332 69-6c22.878 2.332 43.875 8.814 64 12s39.377 3.078 61-4c21.623-7.078 45.615-21.126 69-17 23.385 4.126 46.163 26.425 67 26 20.837-.425 39.734-23.576 61-27 21.266-3.424 44.901 12.877 68 15 23.099 2.123 45.66-9.934 70-12 24.34-2.066 50.457 5.858 73 17s41.512 25.502 63 29c21.488 3.498 45.495-3.866 66-9 20.505-5.134 37.509-8.038 60-7 22.491 1.038 50.47 6.017 77 4 26.53-2.017 51.61-11.03 72-12 20.39-.97 36.087 6.101 57 8 20.913 1.899 47.04-1.375 71-13s45.754-31.6 68-30c22.246 1.6 44.943 24.775 66 33 21.057 8.225 40.474 1.501 64-7 23.526-8.501 51.16-18.779 76-25 24.84-6.221 46.885-8.385 66 7 19.115 15.385 35.299 48.32 57 45 21.701-3.32 48.92-42.894 74-47 25.08-4.106 48.023 27.255 69 37 20.977 9.745 39.989-2.128 99-14l-40 970H0Z" fill="url(#d)"/><path d="M0 538c26.235-16.948 52.47-33.896 73-29 20.53 4.896 35.355 31.636 56 34 20.645 2.364 47.11-19.647 72-17 24.89 2.647 48.206 29.95 70 40 21.794 10.05 42.065 2.844 65-11 22.935-13.844 48.535-34.325 68-42 19.465-7.675 32.795-2.543 56 1s56.285 5.498 82 19c25.715 13.502 44.065 38.55 66 33 21.935-5.55 47.454-41.702 67-45 19.546-3.298 33.119 26.256 54 38s49.07 5.678 75 2 49.599-4.968 69-8c19.401-3.032 34.534-7.807 57-13s52.266-10.804 74-8c21.734 2.804 35.404 14.022 57 18 21.596 3.978 51.12.716 73 3 21.88 2.284 36.118 10.112 59-1 22.882-11.112 54.407-41.166 80-44 25.593-2.834 45.252 21.552 65 25 19.748 3.448 39.584-14.042 63-17 23.416-2.958 50.412 8.616 71 19s34.768 19.577 57 24c22.232 4.423 52.517 4.076 76-3 23.483-7.076 40.166-20.882 59-20 18.834.882 39.82 16.452 65 22 25.18 5.548 54.553 1.075 76-13 21.447-14.075 34.966-37.75 54-31s43.581 43.929 68 53c24.419 9.071 48.71-9.964 113-29l-40 862H0Z" fill="url(#e)"/><path d="M0 646c25.133-3.358 50.266-6.717 70-5 19.734 1.717 34.068 8.51 56 3 21.932-5.51 51.462-23.32 75-23 23.538.32 41.084 18.771 65 23 23.916 4.229 54.203-5.765 74-10 19.797-4.235 29.105-2.71 50-9s53.379-20.394 79-10c25.621 10.394 44.38 45.285 66 46 21.62.715 46.104-32.748 71-42 24.896-9.252 50.207 5.706 70 15s34.07 12.923 56 20 51.512 17.6 73 19c21.488 1.4 34.882-6.323 56-11 21.118-4.677 49.959-6.306 72 1 22.041 7.306 37.282 23.548 57 14 19.718-9.548 43.913-44.887 67-57 23.087-12.113 45.068-1.001 70 5 24.932 6.001 52.817 6.891 76 12s41.664 14.437 62 17c20.336 2.563 42.528-1.639 67-9s51.224-17.882 75-23c23.776-5.118 44.575-4.835 63 1 18.425 5.835 34.476 17.22 57 26 22.524 8.78 51.52 14.953 76 11 24.48-3.953 44.442-18.032 68-16s50.713 20.174 72 22c21.287 1.826 36.706-12.665 54-25 17.294-12.335 36.464-22.513 61-20 24.536 2.513 54.439 17.718 79 24s43.78 3.641 103 1l-40 754H0Z" fill="url(#f)"/><path d="M0 753c25.037 15.501 50.075 31.002 73 26 22.925-5.002 43.738-30.507 66-30 22.262.507 45.973 27.027 64 36 18.027 8.973 30.369.4 54-7s58.552-13.628 82-18 35.423-6.888 57-12c21.577-5.112 52.757-12.821 78-9 25.243 3.821 44.55 19.173 63 31 18.45 11.827 36.042 20.13 57 14 20.958-6.13 45.281-26.694 68-36 22.719-9.306 43.833-7.356 65-5s42.388 5.117 68 15c25.612 9.883 55.615 26.888 78 26 22.385-.888 37.152-19.67 58-27 20.848-7.33 47.778-3.208 72 3s45.738 14.503 66 5 39.271-36.803 63-36c23.729.803 52.177 29.71 76 42s43.021 7.961 66-6 49.737-37.555 68-33c18.263 4.555 28.029 37.258 51 39 22.971 1.742 59.148-27.476 82-34 22.852-6.524 32.38 9.645 54 12 21.62 2.355 55.332-9.106 78-13s34.29-.221 54 6 47.505 14.99 70 11c22.495-3.99 39.69-20.74 64-16 24.31 4.74 55.737 30.968 79 37 23.263 6.032 38.36-8.134 58-15s43.82-6.433 108-6l-40 647H0Z" fill="url(#g)"/><path d="M0 861c26.482 14.86 52.964 29.722 72 28 19.036-1.722 30.625-20.025 52-31 21.375-10.975 52.537-14.62 76-14 23.463.62 39.227 5.506 62 15 22.773 9.494 52.554 23.597 74 22 21.446-1.597 34.556-18.892 54-29 19.444-10.108 45.223-13.028 70-10 24.777 3.028 48.553 12.003 69 9 20.447-3.003 37.565-17.985 63-17 25.435.985 59.187 17.938 84 32 24.813 14.062 40.686 25.232 58 27 17.314 1.768 36.07-5.866 57-20s44.034-34.769 68-36c23.966-1.231 48.794 16.94 72 19 23.206 2.06 44.792-11.992 69-19 24.208-7.008 51.04-6.973 73 0s39.047 20.885 60 27c20.953 6.115 45.77 4.432 69-5 23.23-9.432 44.87-26.613 66-26 21.13.613 41.748 19.018 66 33 24.252 13.982 52.14 23.539 72 24 19.86.461 31.695-8.173 55-7s58.08 12.154 81 6 33.986-29.441 51-38c17.014-8.559 39.978-2.39 64-6s49.103-17 74-15 49.612 19.392 74 26c24.388 6.608 48.45 2.433 70-5 21.55-7.433 40.586-18.124 61-17 20.414 1.124 42.207 14.062 104 27l-40 539H0Z" fill="url(#h)"/><path d="M0 969c22.732-2.67 45.465-5.338 65-9 19.535-3.662 35.874-8.317 58-11 22.126-2.683 50.04-3.395 74 4s43.963 22.898 65 33 43.107 14.802 68 7 52.61-28.105 74-25c21.39 3.105 36.455 29.62 59 33 22.545 3.38 52.57-16.374 74-28 21.43-11.626 34.264-15.125 55-20 20.736-4.875 49.373-11.126 74-12 24.627-.874 45.242 3.627 69 16 23.758 12.373 50.658 32.616 70 34 19.342 1.384 31.124-16.093 54-15s56.845 20.756 82 24c25.155 3.244 41.497-9.933 61-26s42.167-35.026 63-35c20.833.026 39.836 19.035 63 20 23.164.965 50.49-16.116 75-21 24.51-4.884 46.207 2.428 64 19s31.684 42.403 57 33c25.316-9.403 62.058-54.04 84-53 21.942 1.04 29.085 47.756 50 59s55.602-12.983 84-19c28.398-6.017 50.506 6.175 67 6 16.494-.175 27.375-12.716 47-18 19.625-5.284 47.993-3.31 75-7 27.007-3.69 52.651-13.04 75-7 22.349 6.04 41.402 27.472 63 39 21.598 11.528 45.742 13.15 68 8 22.258-5.15 42.629-17.075 103-29l-40 431H0Z" fill="url(#i)"/><path d="M0 1076c17.179 5.207 34.357 10.414 58 17s53.75 14.55 79 5 45.646-36.617 68-38c22.354-1.383 46.667 22.915 68 30 21.333 7.085 39.688-3.045 60-10 20.312-6.955 42.583-10.735 63-17 20.417-6.265 38.98-15.015 61-7 22.02 8.015 47.5 32.796 72 43s48.022 5.831 69-6 39.411-31.121 60-30c20.589 1.121 43.333 22.654 67 23 23.667.346 48.258-20.494 70-31 21.742-10.506 40.634-10.678 63 0s48.207 32.206 74 28c25.793-4.206 51.54-34.145 74-34 22.46.145 41.634 30.373 61 38 19.366 7.627 38.924-7.346 62-17s49.67-13.988 72-13c22.33.988 40.393 7.297 64 17s52.758 22.8 74 31c21.242 8.2 34.575 11.502 58 0 23.425-11.502 56.942-37.807 79-48 22.058-10.193 32.657-4.275 55-3 22.343 1.275 56.431-2.095 78 12 21.569 14.095 30.618 45.654 48 42 17.382-3.654 43.097-42.52 68-49 24.903-6.48 48.995 19.428 71 32 22.005 12.572 41.925 11.808 67 7 25.075-4.808 55.307-13.66 79-18 23.693-4.34 40.846-4.17 98-4l-40 324H0Z" fill="url(#j)"/><path d="M0 1184c27.708-7.429 55.416-14.858 76-15 20.584-.142 34.044 7.003 52 17 17.956 9.997 40.406 22.845 62 12 21.594-10.845 42.33-45.383 70-45 27.67.383 62.273 35.687 83 39 20.727 3.313 27.58-25.363 47-27 19.42-1.637 51.41 23.767 75 24 23.59.233 38.783-24.705 61-20 22.217 4.705 51.459 39.054 76 36 24.541-3.054 44.382-43.511 67-50 22.618-6.489 48.014 20.99 72 31 23.986 10.01 46.563 2.552 65 1 18.437-1.552 32.733 2.804 54 1 21.267-1.804 49.506-9.766 76-12s51.243 1.26 72 10c20.757 8.74 37.522 22.727 55 26 17.478 3.273 35.669-4.168 62-16 26.331-11.832 60.803-28.055 84-36 23.197-7.945 35.121-7.61 53 4 17.879 11.61 41.714 34.499 65 35 23.286.501 46.025-21.384 68-35s43.187-18.963 66-7c22.813 11.963 47.226 41.234 71 48 23.774 6.766 46.91-8.974 72-13 25.09-4.026 52.134 3.661 71 0s29.555-18.672 49-25c19.445-6.328 47.645-3.975 74-2 26.355 1.975 50.865 3.57 72 10 21.135 6.43 38.896 17.694 60 20 21.104 2.306 45.552-4.347 110-11l-40 216H0Z" fill="url(#k)"/><path d="M0 1292c22.82-9.243 45.64-18.485 65-13 19.36 5.485 35.262 25.699 58 31 22.738 5.301 52.311-4.309 75-17 22.689-12.691 38.492-28.463 60-30 21.508-1.537 48.72 11.16 71 16s39.63 1.825 61-3c21.37-4.825 46.759-11.459 72 2s50.334 47.01 72 44c21.666-3.01 39.906-42.585 63-57s51.043-3.672 73 8 37.923 24.273 59 34c21.077 9.727 47.265 16.578 72 3s48.018-47.587 67-40c18.982 7.587 33.663 56.77 59 53 25.337-3.77 61.329-60.495 82-63 20.671-2.505 26.02 49.208 48 54 21.98 4.792 60.589-37.339 84-51 23.411-13.661 31.625 1.146 50 16s46.912 29.755 72 34c25.088 4.245 46.728-2.167 70-3 23.272-.833 48.175 3.911 68 1 19.825-2.911 34.572-13.478 55-18 20.428-4.522 46.537-3 70-4s44.279-4.523 66-5c21.721-.477 44.347 2.091 67 0s45.332-8.842 68-11c22.668-2.158 45.323.277 67 3s42.375 5.733 67 1 53.179-17.21 77-16c23.821 1.21 42.91 16.105 102 31l-40 108H0Z" fill="url(#l)"/></svg>